<?xml version="1.0" encoding="utf-8"?><!-- Uploaded to: SVG Repo, www.svgrepo.com, Generator: SVG Repo Mixer Tools -->
<svg width="800px" height="800px" viewBox="0 0 24 24" fill="none" xmlns="http://www.w3.org/2000/svg">
<path d="M20 10V7C20 5.89543 19.1046 5 18 5H6C4.89543 5 4 5.89543 4 7V10M20 10H4M20 10V11.75M4 10V19C4 20.1046 4.89543 21 6 21H11M8 3V7M16 3V7" stroke="#000000" stroke-width="2" stroke-linecap="round"/>
<path d="M16.723 13.666C16.8255 13.4196 17.1745 13.4196 17.277 13.666L18.2521 16.0105C18.2953 16.1144 18.393 16.1854 18.5052 16.1944L21.0363 16.3973C21.3023 16.4186 21.4102 16.7506 21.2075 16.9242L19.279 18.5761C19.1936 18.6493 19.1563 18.7641 19.1824 18.8735L19.7716 21.3435C19.8335 21.6031 19.5511 21.8082 19.3234 21.6691L17.1564 20.3455C17.0604 20.2869 16.9396 20.2869 16.8436 20.3455L14.6766 21.6691C14.4489 21.8082 14.1665 21.6031 14.2284 21.3435L14.8176 18.8735C14.8437 18.7641 14.8064 18.6493 14.721 18.5761L12.7925 16.9242C12.5898 16.7506 12.6977 16.4186 12.9637 16.3973L15.4948 16.1944C15.607 16.1854 15.7047 16.1144 15.7479 16.0105L16.723 13.666Z" fill="#000000"/>
</svg>